<?xml version="1.0"?>
<svg width="512" height="512" xmlns="http://www.w3.org/2000/svg" xmlns:svg="http://www.w3.org/2000/svg">
 <!-- Created with SVG-edit - https://github.com/SVG-Edit/svgedit-->
 <g class="layer">
  <title>Layer 1</title>
  <g id="svg_11" transform="rotate(-0.413357 204.312 82.0238) matrix(0.225721 0.132815 -0.132815 0.225721 204.312 82.0289)"/>
  <g id="svg_12" transform="rotate(-0.413357 204.312 82.0238) matrix(0.225721 0.132815 -0.132815 0.225721 204.312 82.0289)"/>
  <g id="svg_13" transform="rotate(-0.413357 204.312 82.0238) matrix(0.225721 0.132815 -0.132815 0.225721 204.312 82.0289)"/>
  <g id="svg_14" transform="rotate(-0.413357 204.312 82.0238) matrix(0.225721 0.132815 -0.132815 0.225721 204.312 82.0289)"/>
  <g id="svg_15" transform="rotate(-0.413357 204.312 82.0238) matrix(0.225721 0.132815 -0.132815 0.225721 204.312 82.0289)"/>
  <g id="svg_16" transform="rotate(-0.413357 204.312 82.0238) matrix(0.225721 0.132815 -0.132815 0.225721 204.312 82.0289)"/>
  <g id="svg_17" transform="rotate(-0.413357 204.312 82.0238) matrix(0.225721 0.132815 -0.132815 0.225721 204.312 82.0289)"/>
  <g id="svg_18" transform="rotate(-0.413357 204.312 82.0238) matrix(0.225721 0.132815 -0.132815 0.225721 204.312 82.0289)"/>
  <g id="svg_19" transform="rotate(-0.413357 204.312 82.0238) matrix(0.225721 0.132815 -0.132815 0.225721 204.312 82.0289)"/>
  <g id="svg_20" transform="rotate(-0.413357 204.312 82.0238) matrix(0.225721 0.132815 -0.132815 0.225721 204.312 82.0289)"/>
  <g id="svg_21" transform="rotate(-0.413357 204.312 82.0238) matrix(0.225721 0.132815 -0.132815 0.225721 204.312 82.0289)"/>
  <g id="svg_22" transform="rotate(-0.413357 204.312 82.0238) matrix(0.225721 0.132815 -0.132815 0.225721 204.312 82.0289)"/>
  <g id="svg_23" transform="rotate(-0.413357 204.312 82.0238) matrix(0.225721 0.132815 -0.132815 0.225721 204.312 82.0289)"/>
  <g id="svg_24" transform="rotate(-0.413357 204.312 82.0238) matrix(0.225721 0.132815 -0.132815 0.225721 204.312 82.0289)"/>
  <g id="svg_25" transform="rotate(-0.413357 204.312 82.0238) matrix(0.225721 0.132815 -0.132815 0.225721 204.312 82.0289)"/>
  <g id="svg_4"/>
  <g id="svg_1">
   <path d="m261.657163,281.182151l-227.203134,-131.489744c-57.038996,98.558552 -15.741643,257.222256 97.986163,323.040185c118.253905,68.437327 269.617185,28.044634 338.052457,-90.205713c19.817119,-34.242305 30.236122,-71.235831 32.547644,-108.210455l-241.383126,6.865728l-0.000003,0z" fill="#ce93d8" id="svg_8"/>
   <path d="m286.614364,6.397332c-0.072465,4.846561 1.503376,230.216448 1.503376,230.216448l218.443118,0.071034c-7.430941,-120.517457 -100.958239,-217.504745 -219.946494,-230.287479l0,-0.000003zm173.869338,190.978846l-133.344242,-0.042649c-0.344141,-49.369914 -0.715735,-104.17493 -0.963038,-142.330418c13.052091,4.380746 25.662363,10.076115 37.750686,17.072014c48.071242,27.821318 82.358991,72.989227 96.556591,125.30105l0.000003,0.000003z" fill="#9fa8da" id="svg_9"/>
   <path d="m244.552446,5.441498c-79.549494,4.897851 -148.963827,47.155929 -190.633842,109.746666l190.558766,110.083095l0.075076,-219.829761zm-39.302848,45.988414l-0.035828,105.786897l-91.724209,-52.987852c25.517602,-25.369283 56.993756,-43.481139 91.760037,-52.799046z" fill="#f48fb1" id="svg_10"/>
  </g>
 </g>
</svg>